<svg xmlns="http://www.w3.org/2000/svg" width="960" height="360" viewBox="0 0 960 360" role="img" aria-labelledby="title desc">
  <title id="title">Cumulative GitHub fork trend for skeyboy/git-project-intelligence</title>
  <desc id="desc">0 cumulative forks from 2026-07-31 through 2026-09-14.</desc>
  <style>
    .background { fill: #ffffff; }
    .title { fill: #1f2328; font: 600 18px -apple-system, BlinkMacSystemFont, "Segoe UI", sans-serif; }
    .meta { fill: #656d76; font: 12px -apple-system, BlinkMacSystemFont, "Segoe UI", sans-serif; }
    .axis-label { fill: #656d76; font: 11px -apple-system, BlinkMacSystemFont, "Segoe UI", sans-serif; }
    .grid { stroke: #d8dee4; stroke-width: 1; }
    .area { fill: #ddf4ff; }
    .line { fill: none; stroke: #0969da; stroke-width: 3; stroke-linejoin: round; stroke-linecap: round; }
    .empty { fill: #656d76; font: 14px -apple-system, BlinkMacSystemFont, "Segoe UI", sans-serif; }
    @media (prefers-color-scheme: dark) {
      .background { fill: #0d1117; }
      .title { fill: #e6edf3; }
      .meta, .axis-label, .empty { fill: #8d96a0; }
      .grid { stroke: #30363d; }
      .area { fill: #0c2d6b; }
      .line { stroke: #58a6ff; }
    }
  </style>
  <rect class="background" width="100%" height="100%" rx="6"/>
  <text x="72" y="28" class="title">Cumulative GitHub Forks</text>
  <text x="888" y="28" text-anchor="end" class="meta">Updated 2026-09-14 UTC</text>
  <line x1="72" y1="298.0" x2="888" y2="298.0" class="grid"/><line x1="72" y1="54.0" x2="888" y2="54.0" class="grid"/>
  <text x="60" y="302.0" text-anchor="end" class="axis-label">0</text><text x="60" y="58.0" text-anchor="end" class="axis-label">1</text><text x="72.0" y="328" text-anchor="middle" class="axis-label">2026-07-31</text><text x="235.2" y="328" text-anchor="middle" class="axis-label">2026-08-09</text><text x="398.4" y="328" text-anchor="middle" class="axis-label">2026-08-18</text><text x="561.6" y="328" text-anchor="middle" class="axis-label">2026-08-27</text><text x="724.8" y="328" text-anchor="middle" class="axis-label">2026-09-05</text><text x="888.0" y="328" text-anchor="middle" class="axis-label">2026-09-14</text>
  <polygon points="72,298 72.0,298.0 90.1,298.0 108.3,298.0 126.4,298.0 144.5,298.0 162.7,298.0 180.8,298.0 198.9,298.0 217.1,298.0 235.2,298.0 253.3,298.0 271.5,298.0 289.6,298.0 307.7,298.0 325.9,298.0 344.0,298.0 362.1,298.0 380.3,298.0 398.4,298.0 416.5,298.0 434.7,298.0 452.8,298.0 470.9,298.0 489.1,298.0 507.2,298.0 525.3,298.0 543.5,298.0 561.6,298.0 579.7,298.0 597.9,298.0 616.0,298.0 634.1,298.0 652.3,298.0 670.4,298.0 688.5,298.0 706.7,298.0 724.8,298.0 742.9,298.0 761.1,298.0 779.2,298.0 797.3,298.0 815.5,298.0 833.6,298.0 851.7,298.0 869.9,298.0 888.0,298.0 888,298" class="area"/>
  <polyline points="72.0,298.0 90.1,298.0 108.3,298.0 126.4,298.0 144.5,298.0 162.7,298.0 180.8,298.0 198.9,298.0 217.1,298.0 235.2,298.0 253.3,298.0 271.5,298.0 289.6,298.0 307.7,298.0 325.9,298.0 344.0,298.0 362.1,298.0 380.3,298.0 398.4,298.0 416.5,298.0 434.7,298.0 452.8,298.0 470.9,298.0 489.1,298.0 507.2,298.0 525.3,298.0 543.5,298.0 561.6,298.0 579.7,298.0 597.9,298.0 616.0,298.0 634.1,298.0 652.3,298.0 670.4,298.0 688.5,298.0 706.7,298.0 724.8,298.0 742.9,298.0 761.1,298.0 779.2,298.0 797.3,298.0 815.5,298.0 833.6,298.0 851.7,298.0 869.9,298.0 888.0,298.0" class="line"/>
  <text x="480.0" y="176.0" text-anchor="middle" class="empty">No forks yet</text>
</svg>
