<svg xmlns="http://www.w3.org/2000/svg" width="960" height="360" viewBox="0 0 960 360" role="img" aria-labelledby="title desc">
  <title id="title">Cumulative GitHub fork trend for skeyboy/git-project-intelligence</title>
  <desc id="desc">0 cumulative forks from 2026-07-31 through 2026-09-02.</desc>
  <style>
    .background { fill: #ffffff; }
    .title { fill: #1f2328; font: 600 18px -apple-system, BlinkMacSystemFont, "Segoe UI", sans-serif; }
    .meta { fill: #656d76; font: 12px -apple-system, BlinkMacSystemFont, "Segoe UI", sans-serif; }
    .axis-label { fill: #656d76; font: 11px -apple-system, BlinkMacSystemFont, "Segoe UI", sans-serif; }
    .grid { stroke: #d8dee4; stroke-width: 1; }
    .area { fill: #ddf4ff; }
    .line { fill: none; stroke: #0969da; stroke-width: 3; stroke-linejoin: round; stroke-linecap: round; }
    .empty { fill: #656d76; font: 14px -apple-system, BlinkMacSystemFont, "Segoe UI", sans-serif; }
    @media (prefers-color-scheme: dark) {
      .background { fill: #0d1117; }
      .title { fill: #e6edf3; }
      .meta, .axis-label, .empty { fill: #8d96a0; }
      .grid { stroke: #30363d; }
      .area { fill: #0c2d6b; }
      .line { stroke: #58a6ff; }
    }
  </style>
  <rect class="background" width="100%" height="100%" rx="6"/>
  <text x="72" y="28" class="title">Cumulative GitHub Forks</text>
  <text x="888" y="28" text-anchor="end" class="meta">Updated 2026-09-02 UTC</text>
  <line x1="72" y1="298.0" x2="888" y2="298.0" class="grid"/><line x1="72" y1="54.0" x2="888" y2="54.0" class="grid"/>
  <text x="60" y="302.0" text-anchor="end" class="axis-label">0</text><text x="60" y="58.0" text-anchor="end" class="axis-label">1</text><text x="72.0" y="328" text-anchor="middle" class="axis-label">2026-07-31</text><text x="245.1" y="328" text-anchor="middle" class="axis-label">2026-08-07</text><text x="393.5" y="328" text-anchor="middle" class="axis-label">2026-08-13</text><text x="566.5" y="328" text-anchor="middle" class="axis-label">2026-08-20</text><text x="714.9" y="328" text-anchor="middle" class="axis-label">2026-08-26</text><text x="888.0" y="328" text-anchor="middle" class="axis-label">2026-09-02</text>
  <polygon points="72,298 72.0,298.0 96.7,298.0 121.5,298.0 146.2,298.0 170.9,298.0 195.6,298.0 220.4,298.0 245.1,298.0 269.8,298.0 294.5,298.0 319.3,298.0 344.0,298.0 368.7,298.0 393.5,298.0 418.2,298.0 442.9,298.0 467.6,298.0 492.4,298.0 517.1,298.0 541.8,298.0 566.5,298.0 591.3,298.0 616.0,298.0 640.7,298.0 665.5,298.0 690.2,298.0 714.9,298.0 739.6,298.0 764.4,298.0 789.1,298.0 813.8,298.0 838.5,298.0 863.3,298.0 888.0,298.0 888,298" class="area"/>
  <polyline points="72.0,298.0 96.7,298.0 121.5,298.0 146.2,298.0 170.9,298.0 195.6,298.0 220.4,298.0 245.1,298.0 269.8,298.0 294.5,298.0 319.3,298.0 344.0,298.0 368.7,298.0 393.5,298.0 418.2,298.0 442.9,298.0 467.6,298.0 492.4,298.0 517.1,298.0 541.8,298.0 566.5,298.0 591.3,298.0 616.0,298.0 640.7,298.0 665.5,298.0 690.2,298.0 714.9,298.0 739.6,298.0 764.4,298.0 789.1,298.0 813.8,298.0 838.5,298.0 863.3,298.0 888.0,298.0" class="line"/>
  <text x="480.0" y="176.0" text-anchor="middle" class="empty">No forks yet</text>
</svg>
